<?xml version="1.0" encoding="iso-8859-1"?>
<!-- Uploaded to: SVG Repo, www.svgrepo.com, Generator: SVG Repo Mixer Tools -->
<svg fill="currentColor" height="800px" width="800px" version="1.1" id="Capa_1" xmlns="http://www.w3.org/2000/svg" xmlns:xlink="http://www.w3.org/1999/xlink" 
	 viewBox="0 0 487.15 487.15" xml:space="preserve">
<path d="M243.575,0C109.265,0,0,109.265,0,243.576C0,377.885,109.265,487.15,243.575,487.15S487.15,377.885,487.15,243.576
	C487.15,109.265,377.885,0,243.575,0z M243.575,363.927c-66.361,0-120.352-53.991-120.352-120.352
	c0-66.361,53.991-120.352,120.352-120.352c66.362,0,120.352,53.99,120.352,120.352C363.927,309.936,309.937,363.927,243.575,363.927
	z M336.489,137.345c-22.398-19.615-51.027-32.279-82.489-34.587V21.103c53.924,2.498,102.897,24.262,140.187,58.552L336.489,137.345
	z M233.149,102.758c-31.464,2.308-60.094,14.974-82.493,34.591L92.962,79.656c37.29-34.291,86.264-56.055,140.187-58.553V102.758z
	 M136.021,152.199c-19.15,22.506-31.374,51.071-33.353,82.376H21.048c2.148-53.763,23.436-102.684,57.235-140.113L136.021,152.199z
	 M102.874,255.426c2.581,30.9,15.152,59.004,34.47,81.062L79.65,394.183c-33.986-36.961-55.671-85.397-58.483-138.757H102.874z
	 M152.194,351.125c22.165,18.862,50.207,31.013,80.956,33.268v81.654c-53.205-2.465-101.594-23.683-138.693-57.186L152.194,351.125z
	 M254,384.393c30.747-2.255,58.786-14.403,80.951-33.263l57.737,57.736c-37.099,33.5-85.485,54.717-138.689,57.181V384.393z
	 M349.801,336.494c19.321-22.06,31.895-50.166,34.475-81.068h81.706c-2.812,53.361-24.499,101.801-58.488,138.762L349.801,336.494z
	 M384.483,234.574c-1.98-31.307-14.206-59.874-33.358-82.381l57.741-57.732c33.799,37.43,55.087,86.351,57.235,140.113H384.483z"/>
</svg>